inDegrees=no
num_controls=7
num_derivatives=13
num_iterations=121
num_multipliers=7
num_parameters=0
num_slacks=7
num_states=26
objective=0.456993
objective_accelerations=0.065363
objective_balance=0.002164
objective_effort=0.021795
objective_height=0.358571
objective_ligament=0.009100
solver_duration=1703.785345
status=Solve_Succeeded
success=true
DataType=double
version=3
OpenSimVersion=4.5
endheader
time	/jointset/ground_pelvis/pelvis_tilt/value	/jointset/ground_pelvis/pelvis_tx/value	/jointset/ground_pelvis/pelvis_ty/value	/jointset/hip_l/hip_flexion_l/value	/jointset/hip_l/hip_adduction_l/value	/jointset/hip_l/hip_rotation_l/value	/jointset/back/lumbar_extension/value	/jointset/patellofemoral_l/patellar_flexion_l/value	/jointset/knee_l/knee_flexion_l/value	/jointset/knee_l/knee_adduction_l/value	/jointset/knee_l/knee_rotation_l/value	/jointset/ankle_l/ankle_angle_l/value	/jointset/subtalar_l/subtalar_angle_l/value	/jointset/ground_pelvis/pelvis_tilt/speed	/jointset/ground_pelvis/pelvis_tx/speed	/jointset/ground_pelvis/pelvis_ty/speed	/jointset/hip_l/hip_flexion_l/speed	/jointset/hip_l/hip_adduction_l/speed	/jointset/hip_l/hip_rotation_l/speed	/jointset/back/lumbar_extension/speed	/jointset/patellofemoral_l/patellar_flexion_l/speed	/jointset/knee_l/knee_flexion_l/speed	/jointset/knee_l/knee_adduction_l/speed	/jointset/knee_l/knee_rotation_l/speed	/jointset/ankle_l/ankle_angle_l/speed	/jointset/subtalar_l/subtalar_angle_l/speed	/forceset/tau_hip_flexion_l	/forceset/tau_hip_adduction_l	/forceset/tau_hip_rotation_l	/forceset/tau_knee_flexion_l	/forceset/tau_ankle_angle_l	/forceset/tau_subtalar_angle_l	/forceset/tau_lumbar_extension	lambda_cid13_p0	lambda_cid13_p1	lambda_cid13_p2	lambda_cid13_p3	lambda_cid13_p4	lambda_cid13_p5	lambda_cid14_p0	/jointset/ground_pelvis/pelvis_tilt/accel	/jointset/ground_pelvis/pelvis_tx/accel	/jointset/ground_pelvis/pelvis_ty/accel	/jointset/hip_l/hip_flexion_l/accel	/jointset/hip_l/hip_adduction_l/accel	/jointset/hip_l/hip_rotation_l/accel	/jointset/back/lumbar_extension/accel	/jointset/patellofemoral_l/patellar_flexion_l/accel	/jointset/knee_l/knee_flexion_l/accel	/jointset/knee_l/knee_adduction_l/accel	/jointset/knee_l/knee_rotation_l/accel	/jointset/ankle_l/ankle_angle_l/accel	/jointset/subtalar_l/subtalar_angle_l/accel	gamma_cid13_p0	gamma_cid13_p1	gamma_cid13_p2	gamma_cid13_p3	gamma_cid13_p4	gamma_cid13_p5	gamma_cid14_p0
1.5	-0.5652656420427066	-0.0531129196662686	0.7689070736495981	1.305132884169258	-0.3453403254119862	-0.08383875175645246	-0.3573307664312872	0.6809757766384433	0.680975776638442	-0.03842827851178204	-0.1743933965195198	0.04639876506097905	0.0903433168298783	1.075551146118266	0.4947318013936566	0.5713866648640675	-3.046584380221601	-0.01412882175374628	-0.5902646976886051	0.5825079235311994	-1.829854100822124	-1.829854100822124	-0.2288297210883888	0.006093913868780604	0.01290578013518543	-0.003452205950077424	-0.2097155351755759	0.01175436274687127	0.002571614807069858	-0.08665757695185901	0.04628553016795234	0.01935962728514691	0.1721514768772885	-8.325506616789557	-7.945995199061276	2.123293231450278	-11.2553097116244	-430.9309856487982	-64.8711445330981	-15.86272921805304	1.054154153339852	1.068188536121385	-0.677218372173524	-2.144290398767825	0.3389297488557578	-0.3744769216904923	2.188481376826291	-0.8904720803254395	-0.8904720803254395	-0.3713971983533697	0.1443408971560948	0.1282291485520078	0.4000557183393568	2.348018243598991e-07	1.388240058578828e-06	-1.523295994225321e-06	1.615882496319165e-07	6.222718011387341e-07	-3.978882310683613e-07	4.751253802264233e-07
1.51	-0.5544581290956053	-0.04811286150521268	0.7745858455609362	1.274562720425147	-0.3454654810123269	-0.08976459535034792	-0.3513981964382065	0.6626349224379077	0.6626349224379064	-0.0407340592315214	-0.1743301898899726	0.04653406830894021	0.09032794585589095	1.085778682590949	0.5051990576083961	0.5642362542323337	-3.067017819834361	-0.0108839214245011	-0.5948163594680338	0.6039206420501761	-1.838076062809394	-1.838076062809394	-0.2323186373336272	0.006589404808686946	0.01415492484691348	0.0003963641574827627	-0.2027646554735567	0.0116685658268925	0.00325057470064884	-0.08392889891285862	0.0419390272733491	0.0181982133805454	0.1668880954751358	-9.551558681896564	-7.494086460282743	2.356414865772633	-10.11812423729563	-426.2646576331238	-64.27845868777024	-16.59347829506884	0.9811519997305311	1.024001841427068	-0.7536362976970413	-1.928275860576462	0.3193714840036811	-0.4821833875245847	2.10485213421895	-0.7520082278720989	-0.7520082278720563	-0.3358237108253475	0.0086297460635687	0.1233649388792892	0.3793520241488368	-2.601910265089589e-08	2.454559071937228e-06	5.163937320806536e-07	4.630135388181765e-07	3.290083985280355e-07	-1.964892281469243e-07	3.312988748020399e-07
1.52	-0.5435535210626776	-0.04301052924655398	0.7801891765881525	1.243801141261299	-0.3455577673475662	-0.09573329007832877	-0.3452540622509789	0.6442190586235105	0.6442190586235095	-0.04307436608835618	-0.1742607330402952	0.04668188456529786	0.09035147945641608	1.094970163283553	0.5151866209142086	0.5562984880396508	-3.084867464168976	-0.007554968733464584	-0.5988349245056843	0.6248207623605763	-1.844856023594436	-1.844856023594436	-0.2357349485075173	0.007343957894819877	0.01540838181448493	0.004328708952422448	-0.1958137757715375	0.01158276890691368	0.003929534594228623	-0.08120022087385778	0.03759252437874584	0.01703679947594381	0.1616247140729831	-10.77977837284723	-7.040638402834782	2.587965849969228	-8.969518982341617	-421.6299473873071	-63.7017444246468	-17.3140330353428	0.8469429973240714	0.9722499543359574	-0.8346894843633373	-1.627531343138748	0.3557402212140243	-0.2678575733349201	2.085961735110956	-0.6020718398798982	-0.6020718398798978	-0.3568761840837882	0.1961533264014119	0.1290915997206864	0.4168106558152563	-1.739813997672148e-07	3.113653312508687e-06	1.638153523731512e-06	6.329734452342431e-07	1.673205849120004e-07	-8.00681587212739e-08	2.582481739878878e-07
1.53	-0.5325622453832121	-0.0378106948753533	0.7857093103098579	1.212873920818663	-0.3456163134363873	-0.1017388997595322	-0.338903794334133	0.6257426912302738	0.625742691230273	-0.0454487818010751	-0.1741819272720063	0.04684248310255522	0.09041484995942273	1.103099786333085	0.5247009128015155	0.5476071126760875	-3.100142757916837	-0.004149148567548232	-0.6020561000237653	0.6451228995762553	-1.850170153523517	-1.850170153523517	-0.2392164323054475	0.008576891134860258	0.01672772173392537	0.008353080008440334	-0.1885824296555218	0.01112382429469068	0.00450564551865771	-0.07919609307015656	0.03440626235983607	0.01579283586674699	0.1561621103897706	-11.64637470248773	-6.576239683715899	2.773889833267906	-8.162380033343846	-417.1971148441065	-63.18690782774939	-18.0206572320349	0.7681976638679996	0.9292536194227798	-0.9045063634322613	-1.412446509813557	0.3330078631048832	-0.3144446460561544	1.98585149994618	-0.4590406494220753	-0.4590406494220748	-0.3532759837506596	0.1110340021866629	0.1359245275538903	0.3956385726502033	-2.020314026206543e-07	3.340071231994025e-06	1.784612759811321e-06	6.632513824569804e-07	1.454318346027936e-07	-5.393614363489586e-08	2.603967655721055e-07
1.54	-0.5214952283322309	-0.03251807062258059	0.7911389013177118	1.181806963814708	-0.3456408003337844	-0.1077697606169187	-0.3323538026881005	0.6072205911217464	0.6072205911217458	-0.04785991065299385	-0.1740859580354407	0.04701678890690662	0.09051854182142056	1.110118437586627	0.5337445972286112	0.5381899452693469	-3.112814776432848	-0.0007431304486541576	-0.6038851597423054	0.6647655081979266	-1.854002566652593	-1.854002566652593	-0.2430775763474986	0.01077665155015312	0.01814983523329166	0.0123929807506642	-0.181351083539506	0.01066487968246765	0.005081756443087075	-0.07719196526645536	0.03122000034092628	0.01454887225755015	0.150699506706558	-12.51571179097568	-6.108738867508651	2.956324080072254	-7.330635064508536	-412.7957005163163	-62.67880227861987	-18.70934712282139	0.6247486381260928	0.878128462293698	-0.9798478929987781	-1.106876296768583	0.3557798118095689	0.01056558657321249	1.954056016309409	-0.3057284798789789	-0.3057284798789652	-0.4328082329079699	0.3895187614519064	0.1496463157057703	0.4199165930564544	-1.788508450124158e-07	3.269162716532003e-06	1.527113656800989e-06	6.304152006878583e-07	1.973137417621121e-07	-3.193564164902529e-08	2.783910173574152e-07
